<?xml version="1.0" encoding="UTF-8" standalone="no"?>
<!DOCTYPE svg PUBLIC "-//W3C//DTD SVG 1.1//EN"
 "http://www.w3.org/Graphics/SVG/1.1/DTD/svg11.dtd">
<!-- Generated by graphviz version 2.38.0 (20140413.2041)
 -->
<!-- Title: models_diagram Pages: 1 -->
<svg width="413pt" height="153pt"
 viewBox="0.00 0.00 413.10 153.00" xmlns="http://www.w3.org/2000/svg" xmlns:xlink="http://www.w3.org/1999/xlink">
<g id="graph0" class="graph" transform="scale(1 1) rotate(0) translate(4 149)">
<title>models_diagram</title>
<polygon fill="none" stroke="none" points="-4,4 -4,-149 409.096,-149 409.096,4 -4,4"/>
<!-- _diagram_info -->
<g id="node1" class="node"><title>_diagram_info</title>
<text text-anchor="start" x="8" y="-130.6" font-family="Times,serif" font-size="13.00">Models diagram</text>
<text text-anchor="start" x="8" y="-117.6" font-family="Times,serif" font-size="13.00">Date: Apr 08 2016 &#45; 20:08</text>
<text text-anchor="start" x="8" y="-104.6" font-family="Times,serif" font-size="13.00">Migration version: 20160408230551</text>
<text text-anchor="start" x="8" y="-91.6" font-family="Times,serif" font-size="13.00">Generated by RailRoady 1.4.2</text>
<text text-anchor="start" x="8" y="-78.6" font-family="Times,serif" font-size="13.00">http://railroady.prestonlee.com</text>
</g>
<!-- Inventory -->
<g id="node2" class="node"><title>Inventory</title>
<ellipse fill="none" stroke="black" cx="269.688" cy="-108.5" rx="44.475" ry="18"/>
<text text-anchor="middle" x="269.688" y="-104.3" font-family="Times,serif" font-size="14.00">Inventory</text>
</g>
<!-- Operation -->
<g id="node3" class="node"><title>Operation</title>
<ellipse fill="none" stroke="black" cx="318.688" cy="-18" rx="45.4355" ry="18"/>
<text text-anchor="middle" x="318.688" y="-13.8" font-family="Times,serif" font-size="14.00">Operation</text>
</g>
<!-- Inventory&#45;&gt;Operation -->
<g id="edge1" class="edge"><title>Inventory&#45;&gt;Operation</title>
<path fill="none" stroke="#91561d" d="M282.807,-83.8046C289.805,-71.1649 298.397,-55.6485 305.417,-42.9678"/>
<ellipse fill="none" stroke="#91561d" cx="280.842" cy="-87.3544" rx="4.00002" ry="4.00002"/>
<ellipse fill="#91561d" stroke="#91561d" cx="307.408" cy="-39.3719" rx="4.00002" ry="4.00002"/>
</g>
<!-- Worker -->
<g id="node4" class="node"><title>Worker</title>
<ellipse fill="none" stroke="black" cx="368.688" cy="-108.5" rx="36.3169" ry="18"/>
<text text-anchor="middle" x="368.688" y="-104.3" font-family="Times,serif" font-size="14.00">Worker</text>
</g>
<!-- Worker&#45;&gt;Operation -->
<g id="edge2" class="edge"><title>Worker&#45;&gt;Operation</title>
<path fill="none" stroke="#e04ead" d="M355.301,-83.8046C348.493,-71.7555 340.209,-57.0923 333.243,-44.7634"/>
<ellipse fill="none" stroke="#e04ead" cx="357.316" cy="-87.3712" rx="4.00002" ry="4.00002"/>
<polygon fill="#e04ead" stroke="#e04ead" points="333.139,-44.579 332.138,-33.6589 330.68,-40.2257 328.22,-35.8724 328.22,-35.8724 328.22,-35.8724 330.68,-40.2257 324.302,-38.086 333.139,-44.579 333.139,-44.579"/>
</g>
</g>
</svg>
