<?xml version="1.0" encoding="UTF-8" standalone="no"?>
<!DOCTYPE svg PUBLIC "-//W3C//DTD SVG 1.1//EN"
 "http://www.w3.org/Graphics/SVG/1.1/DTD/svg11.dtd">
<!-- Generated by graphviz version 2.38.0 (20140413.2041)
 -->
<!-- Title: models_diagram Pages: 1 -->
<svg width="748pt" height="274pt"
 viewBox="0.00 0.00 747.55 274.00" xmlns="http://www.w3.org/2000/svg" xmlns:xlink="http://www.w3.org/1999/xlink">
<g id="graph0" class="graph" transform="scale(1 1) rotate(0) translate(4 270)">
<title>models_diagram</title>
<polygon fill="none" stroke="none" points="-4,4 -4,-270 743.55,-270 743.55,4 -4,4"/>
<!-- _diagram_info -->
<g id="node1" class="node"><title>_diagram_info</title>
<text text-anchor="start" x="8" y="-230.6" font-family="Times,serif" font-size="13.00">Models diagram</text>
<text text-anchor="start" x="8" y="-217.6" font-family="Times,serif" font-size="13.00">Date: Apr 08 2016 &#45; 20:08</text>
<text text-anchor="start" x="8" y="-204.6" font-family="Times,serif" font-size="13.00">Migration version: 20160408230551</text>
<text text-anchor="start" x="8" y="-191.6" font-family="Times,serif" font-size="13.00">Generated by RailRoady 1.4.2</text>
<text text-anchor="start" x="8" y="-178.6" font-family="Times,serif" font-size="13.00">http://railroady.prestonlee.com</text>
</g>
<!-- Inventory -->
<g id="node2" class="node"><title>Inventory</title>
<path fill="none" stroke="black" d="M237.825,-151.5C237.825,-151.5 461.55,-151.5 461.55,-151.5 467.55,-151.5 473.55,-157.5 473.55,-163.5 473.55,-163.5 473.55,-253.5 473.55,-253.5 473.55,-259.5 467.55,-265.5 461.55,-265.5 461.55,-265.5 237.825,-265.5 237.825,-265.5 231.825,-265.5 225.825,-259.5 225.825,-253.5 225.825,-253.5 225.825,-163.5 225.825,-163.5 225.825,-157.5 231.825,-151.5 237.825,-151.5"/>
<text text-anchor="middle" x="349.688" y="-250.3" font-family="Times,serif" font-size="14.00">Inventory</text>
<polyline fill="none" stroke="black" points="225.825,-243.5 473.55,-243.5 "/>
<text text-anchor="start" x="233.825" y="-228.3" font-family="Times,serif" font-size="14.00">id :integer</text>
<text text-anchor="start" x="233.825" y="-214.3" font-family="Times,serif" font-size="14.00">sku :character varying</text>
<text text-anchor="start" x="233.825" y="-200.3" font-family="Times,serif" font-size="14.00">wheel_size :integer</text>
<text text-anchor="start" x="233.825" y="-186.3" font-family="Times,serif" font-size="14.00">description :text</text>
<text text-anchor="start" x="233.825" y="-172.3" font-family="Times,serif" font-size="14.00">created_at :timestamp without time zone</text>
<text text-anchor="start" x="233.825" y="-158.3" font-family="Times,serif" font-size="14.00">updated_at :timestamp without time zone</text>
</g>
<!-- Operation -->
<g id="node3" class="node"><title>Operation</title>
<path fill="none" stroke="black" d="M370.825,-0.5C370.825,-0.5 594.55,-0.5 594.55,-0.5 600.55,-0.5 606.55,-6.5 606.55,-12.5 606.55,-12.5 606.55,-102.5 606.55,-102.5 606.55,-108.5 600.55,-114.5 594.55,-114.5 594.55,-114.5 370.825,-114.5 370.825,-114.5 364.825,-114.5 358.825,-108.5 358.825,-102.5 358.825,-102.5 358.825,-12.5 358.825,-12.5 358.825,-6.5 364.825,-0.5 370.825,-0.5"/>
<text text-anchor="middle" x="482.688" y="-99.3" font-family="Times,serif" font-size="14.00">Operation</text>
<polyline fill="none" stroke="black" points="358.825,-92.5 606.55,-92.5 "/>
<text text-anchor="start" x="366.825" y="-77.3" font-family="Times,serif" font-size="14.00">id :integer</text>
<text text-anchor="start" x="366.825" y="-63.3" font-family="Times,serif" font-size="14.00">description :character varying</text>
<text text-anchor="start" x="366.825" y="-49.3" font-family="Times,serif" font-size="14.00">worker_id :integer</text>
<text text-anchor="start" x="366.825" y="-35.3" font-family="Times,serif" font-size="14.00">created_at :timestamp without time zone</text>
<text text-anchor="start" x="366.825" y="-21.3" font-family="Times,serif" font-size="14.00">updated_at :timestamp without time zone</text>
<text text-anchor="start" x="366.825" y="-7.3" font-family="Times,serif" font-size="14.00">inventory_id :integer</text>
</g>
<!-- Inventory&#45;&gt;Operation -->
<g id="edge1" class="edge"><title>Inventory&#45;&gt;Operation</title>
<path fill="none" stroke="#9a8acf" d="M405.477,-144.999C412.577,-137.045 419.845,-128.903 426.944,-120.949"/>
<ellipse fill="none" stroke="#9a8acf" cx="402.633" cy="-148.185" rx="4.00002" ry="4.00002"/>
<ellipse fill="#9a8acf" stroke="#9a8acf" cx="429.671" cy="-117.894" rx="4.00002" ry="4.00002"/>
</g>
<!-- Worker -->
<g id="node4" class="node"><title>Worker</title>
<path fill="none" stroke="black" d="M503.825,-158.5C503.825,-158.5 727.55,-158.5 727.55,-158.5 733.55,-158.5 739.55,-164.5 739.55,-170.5 739.55,-170.5 739.55,-246.5 739.55,-246.5 739.55,-252.5 733.55,-258.5 727.55,-258.5 727.55,-258.5 503.825,-258.5 503.825,-258.5 497.825,-258.5 491.825,-252.5 491.825,-246.5 491.825,-246.5 491.825,-170.5 491.825,-170.5 491.825,-164.5 497.825,-158.5 503.825,-158.5"/>
<text text-anchor="middle" x="615.688" y="-243.3" font-family="Times,serif" font-size="14.00">Worker</text>
<polyline fill="none" stroke="black" points="491.825,-236.5 739.55,-236.5 "/>
<text text-anchor="start" x="499.825" y="-221.3" font-family="Times,serif" font-size="14.00">id :integer</text>
<text text-anchor="start" x="499.825" y="-207.3" font-family="Times,serif" font-size="14.00">name :character varying</text>
<text text-anchor="start" x="499.825" y="-193.3" font-family="Times,serif" font-size="14.00">email :character varying</text>
<text text-anchor="start" x="499.825" y="-179.3" font-family="Times,serif" font-size="14.00">created_at :timestamp without time zone</text>
<text text-anchor="start" x="499.825" y="-165.3" font-family="Times,serif" font-size="14.00">updated_at :timestamp without time zone</text>
</g>
<!-- Worker&#45;&gt;Operation -->
<g id="edge2" class="edge"><title>Worker&#45;&gt;Operation</title>
<path fill="none" stroke="#a6fdf8" d="M566.437,-152.325C557.684,-142.518 548.502,-132.231 539.557,-122.211"/>
<ellipse fill="none" stroke="#a6fdf8" cx="569.106" cy="-155.315" rx="4.00002" ry="4.00002"/>
<polygon fill="#a6fdf8" stroke="#a6fdf8" points="539.434,-122.073 536.132,-111.616 536.104,-118.343 532.775,-114.612 532.775,-114.612 532.775,-114.612 536.104,-118.343 529.418,-117.609 539.434,-122.073 539.434,-122.073"/>
</g>
</g>
</svg>
